<svg width="500" height="500" viewBox="0 0 500 500" fill="none" xmlns="http://www.w3.org/2000/svg">
<rect width="500" height="500" rx="55" fill="black"/>
<rect x="230.205" y="129" width="159.971" height="39.8342" fill="white"/>
<path d="M120.375 370C104.365 370 88.9142 367.769 74.0216 363.308C59.3151 358.634 47.3079 352.685 38 345.462L56.1504 298.936C64.8998 305.309 74.9524 310.62 86.308 314.869C97.8498 318.906 109.299 320.924 120.654 320.924C128.287 320.924 134.43 320.181 139.084 318.693C143.738 316.994 147.089 314.869 149.136 312.32C151.37 309.558 152.487 306.371 152.487 302.76C152.487 297.661 150.439 293.624 146.344 290.65C142.249 287.676 136.943 285.233 130.427 283.321C123.912 281.409 116.652 279.497 108.647 277.584C100.828 275.672 92.9166 273.229 84.9118 270.255C77.0932 267.281 69.9261 263.457 63.4106 258.783C56.895 253.896 51.5895 247.629 47.4941 239.981C43.3986 232.12 41.3508 222.241 41.3508 210.344C41.3508 196.96 44.5155 184.85 50.8449 174.015C57.3604 163.181 67.0407 154.47 79.8856 147.884C92.7305 141.298 108.74 138.005 127.914 138.005C140.759 138.005 153.325 139.705 165.611 143.104C178.084 146.291 189.16 151.071 198.841 157.444L181.807 204.29C172.499 198.553 163.284 194.304 154.163 191.543C145.041 188.568 136.198 187.081 127.635 187.081C120.003 187.081 113.859 188.037 109.205 189.949C104.552 191.649 101.201 193.986 99.1529 196.96C97.1052 199.934 96.0813 203.333 96.0813 207.158C96.0813 212.044 98.036 215.974 101.945 218.948C106.041 221.71 111.346 224.047 117.862 225.959C124.564 227.659 131.824 229.465 139.642 231.377C147.647 233.289 155.559 235.732 163.377 238.706C171.382 241.468 178.642 245.292 185.158 250.178C191.674 254.852 196.886 261.12 200.795 268.98C204.891 276.628 206.938 286.295 206.938 297.98C206.938 310.939 203.681 322.942 197.165 333.99C190.836 344.825 181.249 353.535 168.404 360.121C155.745 366.707 139.735 370 120.375 370Z" fill="white"/>
<path d="M293.631 368.406C281.344 368.406 270.268 365.645 260.401 360.121C250.721 354.597 243.089 345.993 237.504 334.308C232.105 322.411 229.406 307.434 229.406 289.375V192.817H282.461V279.496C282.461 292.881 284.602 302.441 288.884 308.177C293.351 313.913 299.588 316.781 307.593 316.781C312.805 316.781 317.552 315.4 321.834 312.639C326.115 309.877 329.559 305.521 332.165 299.573C334.772 293.412 336.075 285.551 336.075 275.991V192.817H389.13V365.538H338.588V316.781L348.361 330.484C343.149 343.231 335.609 352.791 325.743 359.165C315.877 365.326 305.172 368.406 293.631 368.406Z" fill="white"/>
<ellipse cx="436.168" cy="345.138" rx="24.832" ry="24.8623" fill="white"/>
</svg>
