<svg width="107" height="105" viewBox="0 0 107 105" fill="none" xmlns="http://www.w3.org/2000/svg">
<g clip-path="url(#clip0_626_101)">
<path d="M11.1446 50.0361C10.5288 50.793 9.70874 51.3573 8.78174 51.6619C7.70103 52.0052 6.55668 52.0994 5.43438 51.9376C4.32861 51.8303 3.26228 51.4704 2.31768 50.8856C1.50271 50.3696 0.854133 49.6292 0.44992 48.7534C0.106275 47.9096 -0.0394477 46.9982 0.023942 46.0893C0.0873316 45.1804 0.358144 44.2981 0.815594 43.5102C1.19048 42.9056 1.70332 42.3986 2.31206 42.0306C2.91581 41.6689 3.58834 41.4371 4.28671 41.3499H4.44987L4.26421 42.8969H4.16858C3.4471 43.0464 2.78797 43.4113 2.27831 43.9433C1.77901 44.5076 1.47517 45.2179 1.41194 45.9686C1.30405 46.6998 1.41157 47.4466 1.72135 48.1177C2.04079 48.7628 2.54382 49.2991 3.16719 49.6592C3.91208 50.085 4.73818 50.3495 5.59191 50.4355C6.46617 50.5615 7.35707 50.504 8.2079 50.2668C8.92249 50.0798 9.56154 49.6758 10.0371 49.1106C10.5126 48.5454 10.8013 47.8467 10.8633 47.1107C10.9521 46.4717 10.8825 45.8206 10.6608 45.2148C10.4575 44.6657 10.1024 44.1858 9.63686 43.8308C9.14476 43.4617 8.56116 43.2341 7.94912 43.1726H7.74097L7.34153 46.5031L6.04759 46.3456L6.61017 41.5411L7.73534 41.6761C8.69211 41.7467 9.61718 42.0499 10.4301 42.5594C11.1245 43.031 11.66 43.7017 11.9659 44.4834C12.29 45.368 12.3867 46.3197 12.2472 47.2513C12.1545 48.2661 11.7717 49.2329 11.1446 50.0361Z" fill="white"/>
<path d="M13.9406 37.119C13.1279 37.6504 12.1774 37.9321 11.2064 37.9291C10.0817 37.9152 8.97513 37.6438 7.97158 37.1359C6.94465 36.6805 6.03471 35.9975 5.31058 35.1387C4.68724 34.3893 4.2962 33.4743 4.18542 32.5058C4.1221 31.4904 4.31692 30.4755 4.75173 29.5557C5.18653 28.6359 5.84716 27.8412 6.67203 27.2457C7.48234 26.7138 8.43125 26.4321 9.40054 26.4356C10.5227 26.45 11.627 26.7193 12.6297 27.2232C13.6586 27.678 14.5705 28.361 15.2964 29.2204C15.9207 29.9626 16.3121 30.8726 16.4215 31.8364C16.4829 32.8545 16.2868 33.8717 15.8512 34.794C15.4156 35.7163 14.7546 36.514 13.9293 37.1134L13.9406 37.119ZM14.9982 32.0558C14.8887 31.3331 14.5699 30.6584 14.0812 30.1149C13.5027 29.4708 12.7955 28.9552 12.0053 28.6015C11.2296 28.2122 10.3802 27.9917 9.51306 27.9546C8.77399 27.9317 8.04432 28.1251 7.41361 28.5111C6.7829 28.897 6.27859 29.4587 5.96257 30.1272C5.64654 30.7957 5.53255 31.5419 5.6346 32.2742C5.73664 33.0066 6.05027 33.6932 6.537 34.2498C7.11415 34.8993 7.824 35.4173 8.61856 35.7688C9.39484 36.155 10.2444 36.3717 11.1108 36.4045C11.8509 36.4423 12.5848 36.2522 13.2136 35.8599C13.8423 35.4676 14.3356 34.8919 14.6269 34.2104C14.9694 33.5455 15.099 32.7913 14.9982 32.0501V32.0558Z" fill="white"/>
<path d="M11.2567 19.1107L14.0021 16.2021C14.7037 15.4272 15.593 14.8459 16.5843 14.5144C17.5003 14.2296 18.4812 14.2296 19.3972 14.5144C20.4547 14.8476 21.4185 15.4258 22.2101 16.2021C23.0344 16.9391 23.6758 17.8579 24.0835 18.8856C24.423 19.7848 24.48 20.7662 24.2467 21.6985C23.9684 22.7142 23.4292 23.6393 22.6827 24.3821L19.9373 27.2906L11.2567 19.1107ZM21.6082 23.5213C22.1736 22.9599 22.5811 22.2594 22.7896 21.4904C22.9594 20.7899 22.9042 20.0537 22.6321 19.3863C22.2953 18.5954 21.7882 17.8885 21.1469 17.3161C20.5367 16.7049 19.799 16.2362 18.9866 15.9434C18.3031 15.7085 17.563 15.6948 16.8713 15.904C16.1171 16.157 15.4435 16.6054 14.9191 17.2035L13.2482 18.9307L19.9542 25.2597L21.6082 23.5213Z" fill="white"/>
<path d="M29.7832 4.43845L31.1221 3.80835L36.1853 14.5649L34.8464 15.195L29.7832 4.43845Z" fill="white"/>
<path d="M41.6987 12.2865C41.0533 12.1918 40.4452 11.9256 39.9378 11.5158C39.4459 11.1103 39.0888 10.5649 38.9139 9.9518L38.8802 9.83929L40.326 9.50737L40.3654 9.61426C40.5054 9.97581 40.7503 10.2873 41.0686 10.5088C41.42 10.7428 41.824 10.8858 42.2444 10.9251C42.7549 10.9766 43.2706 10.9405 43.769 10.8182C44.2646 10.7179 44.7376 10.5272 45.1642 10.2556C45.5044 10.036 45.777 9.72639 45.9518 9.3611C46.1071 9.00693 46.1408 8.61126 46.0474 8.23594C46.0068 7.99917 45.9127 7.77477 45.7723 7.57981C45.6319 7.38484 45.449 7.22444 45.2373 7.11078C44.6398 6.85427 43.9903 6.74247 43.3414 6.78448H41.9912C41.0329 6.84986 40.0748 6.6555 39.2177 6.2219C38.8845 6.0184 38.598 5.74683 38.3769 5.42497C38.1559 5.10311 38.0053 4.7382 37.935 4.35413C37.7922 3.7518 37.8434 3.11975 38.0813 2.54825C38.3366 1.96188 38.7446 1.45479 39.2627 1.07992C39.8634 0.64177 40.5496 0.335066 41.2767 0.179784C41.9698 0.0105484 42.691 -0.00862743 43.392 0.123531C44.0143 0.242381 44.5956 0.519431 45.0798 0.928017C45.5487 1.33135 45.8891 1.86339 46.0587 2.45824L46.0924 2.57637L44.6466 2.9083L44.6072 2.80141C44.4737 2.44247 44.2441 2.12717 43.9434 1.89003C43.6339 1.6599 43.2726 1.50922 42.8913 1.45121C42.4407 1.39064 41.9826 1.41546 41.5411 1.52435C41.0779 1.62772 40.6387 1.81867 40.2472 2.08693C39.9239 2.29774 39.665 2.59363 39.499 2.94206C39.3517 3.27451 39.3181 3.64623 39.4033 3.99971C39.4485 4.22332 39.5446 4.43353 39.6841 4.61402C39.8236 4.79451 40.0028 4.94043 40.2078 5.04048C40.7826 5.29346 41.4095 5.40534 42.0362 5.36678H43.3864C44.3685 5.29675 45.3514 5.49101 46.2331 5.92936C46.5665 6.14213 46.8518 6.42216 47.0707 6.75153C47.2896 7.08091 47.4374 7.45236 47.5045 7.84213C47.6648 8.47232 47.6255 9.13676 47.392 9.74365C47.1435 10.3513 46.7231 10.8733 46.1824 11.2457C44.8543 12.1187 43.2593 12.4915 41.6818 12.2978L41.6987 12.2865Z" fill="white"/>
<path d="M63.3012 0L64.3757 0.219406L64.0157 1.9634L63.6444 1.88464L58.0973 11.0547L56.5728 10.7397L63.3012 0ZM59.982 6.6947L65.1465 7.75798L65.3771 9.09129L59.2394 7.82549L59.982 6.6947ZM63.6781 1.89027L64.0382 0.146268L64.7414 0.292536L66.6654 12.8325L65.1409 12.5174L63.6781 1.89027Z" fill="white"/>
<path d="M74.7897 3.48828L76.1061 4.169L71.2567 13.5472L76.348 16.1801L75.7348 17.3671L69.3214 14.0479L74.7897 3.48828Z" fill="white"/>
<path d="M79.7509 20.2078C79.4613 19.6221 79.335 18.9691 79.3852 18.3176C79.4402 17.6831 79.6875 17.0806 80.0941 16.5905L80.1672 16.4948L81.2586 17.5018L81.1911 17.5975C80.9741 17.9179 80.8585 18.2962 80.8592 18.6833C80.8646 19.1032 80.9748 19.5151 81.1799 19.8815C81.427 20.3332 81.7506 20.7387 82.1363 21.0798C82.4989 21.4303 82.9246 21.709 83.3908 21.9012C83.7649 22.0604 84.1763 22.1111 84.5779 22.0475C84.955 21.9755 85.2963 21.777 85.5455 21.4849C85.7124 21.3168 85.8391 21.113 85.9161 20.8889C85.9931 20.6648 86.0183 20.4262 85.9899 20.191C85.8667 19.5542 85.5928 18.9562 85.1911 18.447L84.4147 17.3218C83.8197 16.5632 83.4424 15.6569 83.3233 14.7002C83.3015 14.3104 83.3625 13.9204 83.5021 13.5559C83.6417 13.1913 83.8568 12.8604 84.1334 12.5849C84.5456 12.1248 85.0933 11.8077 85.6974 11.6791C86.3269 11.5565 86.9777 11.6051 87.582 11.8198C88.2801 12.0594 88.9202 12.4427 89.461 12.9449C89.992 13.4129 90.4176 13.9881 90.71 14.6327C90.9647 15.2104 91.0655 15.8441 91.0025 16.4723C90.9359 17.092 90.6895 17.6786 90.2937 18.1601L90.2149 18.2613L89.1235 17.2543L89.191 17.1587C89.4121 16.8457 89.5426 16.4778 89.5679 16.0954C89.5837 15.7065 89.5025 15.3199 89.3317 14.9702C89.1266 14.5645 88.8459 14.2017 88.5047 13.9013C88.1639 13.5725 87.7627 13.3127 87.3232 13.1362C86.9662 12.9946 86.578 12.9499 86.1981 13.0068C85.8427 13.0744 85.52 13.2585 85.2811 13.53C85.1233 13.6948 85.0052 13.8936 84.936 14.111C84.8668 14.3284 84.8482 14.5588 84.8817 14.7846C85.0005 15.4005 85.2647 15.9791 85.6524 16.4723L86.4287 17.5975C87.0346 18.3703 87.423 19.2909 87.5539 20.2641C87.5674 20.6589 87.4988 21.0522 87.3526 21.4192C87.2064 21.7862 86.9857 22.1189 86.7044 22.3963C86.2744 22.8851 85.7051 23.2306 85.0729 23.3864C84.4309 23.5243 83.7627 23.4735 83.1489 23.2402C81.6807 22.6441 80.4723 21.5454 79.7397 20.1403L79.7509 20.2078Z" fill="white"/>
<path d="M88.0776 28.7648C88.097 27.7943 88.4023 26.851 88.9552 26.0532C89.5994 25.1234 90.4482 24.3536 91.4362 23.8028C92.3908 23.2112 93.4688 22.8474 94.5866 22.7396C95.559 22.6497 96.5365 22.8452 97.3996 23.3022C98.2877 23.8068 99.0196 24.5465 99.5149 25.44C100.051 26.3088 100.334 27.3105 100.331 28.3316C100.311 29.3004 100.006 30.242 99.453 31.0376C98.8055 31.9572 97.957 32.7171 96.972 33.2598C96.0147 33.851 94.9354 34.2165 93.8159 34.3287C92.8434 34.4206 91.8654 34.2249 91.003 33.7661C90.1243 33.2405 89.3937 32.5 88.8799 31.6143C88.3662 30.7285 88.0862 29.7267 88.0663 28.7029L88.0776 28.7648ZM91.6556 32.506C92.3151 32.8212 93.0513 32.9403 93.7765 32.8491C94.6346 32.736 95.459 32.4426 96.1956 31.9884C96.9568 31.5701 97.6203 30.9948 98.1422 30.3006C98.5784 29.7043 98.8312 28.9937 98.8696 28.2558C98.908 27.5179 98.7303 26.7848 98.3582 26.1464C97.9862 25.508 97.436 24.9921 96.7751 24.6617C96.1141 24.3314 95.3712 24.201 94.6373 24.2867C93.7851 24.3919 92.9646 24.6756 92.2294 25.1193C91.4697 25.5373 90.808 26.1127 90.2885 26.807C89.8533 27.3972 89.5974 28.1004 89.5515 28.8323C89.5417 29.5765 89.735 30.3092 90.1107 30.9516C90.4864 31.594 91.0303 32.1217 91.6837 32.4778L91.6556 32.506Z" fill="white"/>
<path d="M106.379 47.7572L106.458 48.8486L104.686 48.978L104.658 48.601L94.3119 45.76L94.1994 44.2073L106.379 47.7572ZM104.658 48.6348L106.436 48.5054L106.486 49.2199L94.9476 54.4912L94.8351 52.9385L104.658 48.6348ZM99.032 46.3845L99.4145 51.6446L98.1937 52.2072L97.738 45.9625L99.032 46.3845Z" fill="white"/>
<path d="M16.9785 71.363L19.4313 74.9467C20.0494 75.8016 20.4369 76.8014 20.5565 77.8496C20.6536 78.7971 20.4572 79.7515 19.9939 80.5837C19.4413 81.5383 18.6701 82.3481 17.7436 82.9466C16.8422 83.5962 15.8022 84.0276 14.7057 84.2067C13.7452 84.3538 12.7628 84.2006 11.8928 83.7679C10.9559 83.276 10.163 82.549 9.5918 81.6583L7.13333 78.0746L16.9785 71.363ZM10.9701 80.4712C11.3505 81.0688 11.8849 81.5527 12.5172 81.872C13.0985 82.1485 13.7532 82.2313 14.385 82.1083C15.1552 81.9557 15.8828 81.637 16.5172 81.1744C17.1669 80.756 17.7179 80.2012 18.1318 79.5486C18.466 78.9981 18.6195 78.3567 18.5706 77.7146C18.4935 77.0172 18.2356 76.352 17.8224 75.7849L16.6972 74.1422L9.83934 78.8397L10.9701 80.4712Z" fill="white"/>
<path d="M24.8558 81.7036L30.8473 86.5306L29.7221 87.9258L25.3846 84.4265L23.3706 86.9244L27.4718 90.2267L26.4085 91.5656L22.3073 88.2577L20.1752 90.9018L24.5127 94.4011L23.3875 95.7906L17.4073 90.9412L24.8558 81.7036Z" fill="white"/>
<path d="M30.7446 99.6943C30.2517 99.2266 29.8958 98.6334 29.7151 97.9785C29.553 97.336 29.5883 96.6596 29.8163 96.0375L29.8557 95.9194L31.7235 96.707V96.8027C31.6438 97.1299 31.6674 97.4738 31.791 97.7872C31.9272 98.1325 32.1454 98.4394 32.4267 98.6817C32.7609 98.9744 33.141 99.2101 33.5519 99.3793C33.9552 99.5601 34.3878 99.6669 34.8289 99.6943C35.178 99.7191 35.527 99.645 35.8359 99.4805C36.1158 99.3202 36.3337 99.0706 36.4548 98.7717C36.5417 98.5881 36.5825 98.3861 36.5736 98.1832C36.5648 97.9802 36.5066 97.7825 36.4041 97.6071C36.0696 97.1129 35.6344 96.695 35.1271 96.3807L34.0525 95.6437C33.2191 95.1322 32.5435 94.4001 32.1004 93.5284C31.9402 93.1611 31.8603 92.7638 31.8661 92.3631C31.872 91.9623 31.9633 91.5675 32.1341 91.205C32.381 90.5938 32.8166 90.0774 33.3775 89.731C33.9572 89.3849 34.6206 89.204 35.2958 89.2078C36.8644 89.2299 38.3638 89.8567 39.4814 90.9574C39.9443 91.4234 40.2711 92.007 40.4266 92.6452C40.5706 93.2701 40.5275 93.9236 40.3028 94.5242L40.2578 94.6592L38.39 93.8716V93.7647C38.4845 93.4491 38.4845 93.1127 38.39 92.7971C38.2778 92.4739 38.0841 92.1851 37.8275 91.9588C37.5315 91.6855 37.1884 91.4682 36.8148 91.3175C36.4426 91.1498 36.0414 91.0562 35.6334 91.0418C35.3063 91.0228 34.9806 91.097 34.6939 91.2556C34.4364 91.4092 34.2382 91.645 34.1313 91.9251C34.0531 92.1049 34.0189 92.3008 34.0316 92.4965C34.0443 92.6922 34.1036 92.8821 34.2044 93.0502C34.5175 93.5273 34.9325 93.9289 35.4196 94.226L36.4941 94.963C37.354 95.4823 38.0592 96.2225 38.5363 97.1064C38.6918 97.48 38.7661 97.8823 38.7545 98.2867C38.7428 98.6911 38.6455 99.0884 38.4688 99.4524C38.2167 100.085 37.7794 100.626 37.2142 101.005C36.6271 101.377 35.9457 101.572 35.2508 101.568C33.5795 101.49 31.9876 100.832 30.7502 99.7056L30.7446 99.6943Z" fill="white"/>
<path d="M45.0627 92.2065L47.1555 92.5722L45.0908 104.285L42.998 103.914L45.0627 92.2065Z" fill="white"/>
<path d="M53.8114 104.443C52.9337 103.994 52.2091 103.295 51.7298 102.434C51.1816 101.433 50.8752 100.318 50.8353 99.1769C50.7303 98.056 50.8923 96.9263 51.3079 95.8801C51.6713 94.9679 52.298 94.1845 53.1082 93.6298C53.9776 93.0674 54.9821 92.7488 56.0167 92.7072C56.8641 92.6324 57.7174 92.7477 58.5146 93.0447C59.2039 93.3039 59.8213 93.7241 60.3154 94.2701C60.8096 94.8161 61.1662 95.4723 61.3556 96.1839L61.395 96.3246L59.2459 96.4596L59.2122 96.3752C58.9741 95.7889 58.5591 95.2914 58.0251 94.9519C57.4559 94.6199 56.7963 94.4761 56.1405 94.5412C55.4925 94.5656 54.8662 94.7809 54.3402 95.16C53.8356 95.5485 53.4592 96.0797 53.2601 96.6846C53.0144 97.4291 52.9244 98.2161 52.9957 98.9968C53.022 99.7981 53.2135 100.585 53.5582 101.309C53.8448 101.91 54.3028 102.413 54.8747 102.755C55.4472 103.078 56.105 103.217 56.7593 103.154C57.3068 103.132 57.8411 102.98 58.3177 102.71C58.7468 102.466 59.098 102.105 59.3303 101.669C59.5684 101.214 59.6774 100.702 59.6453 100.189V100.004L56.7031 100.195L56.5962 98.5411L61.6144 98.2205L61.6931 99.5031C61.7865 100.462 61.6376 101.429 61.26 102.316C60.9076 103.096 60.3295 103.752 59.6003 104.201C58.7227 104.691 57.7424 104.968 56.7381 105.011C55.7338 105.054 54.7334 104.861 53.817 104.448L53.8114 104.443Z" fill="white"/>
<path d="M64.0553 91.8579L65.8218 91.1322L76.0608 97.7425L73.5685 96.9661L74.3955 96.6229L71.2282 88.91L73.1804 88.1055L77.681 99.1095L75.9257 99.8296L65.6924 93.1912L68.1846 93.9619L67.3464 94.3051L70.525 102.046L68.6009 102.856L64.0553 91.8579Z" fill="white"/>
<path d="M76.0269 86.1986L81.979 81.321L83.1042 82.705L78.7948 86.2324L80.8258 88.7134L84.8988 85.3772L85.9846 86.7049L81.9115 90.041L84.0606 92.6683L88.37 89.1353L89.4951 90.5192L83.5374 95.3968L76.0269 86.1986Z" fill="white"/>
<path d="M84.2293 78.935L86.924 75.0307C87.3365 74.3995 87.889 73.872 88.5386 73.4892C89.0992 73.1653 89.7437 73.0164 90.3895 73.0616C91.0801 73.1221 91.7412 73.3691 92.3023 73.7761C92.926 74.1846 93.4107 74.7733 93.6919 75.4639C93.9591 76.1235 94.0045 76.8521 93.8213 77.5398L99.222 78.1024L97.855 80.1333L92.8649 79.5257C92.8535 79.5394 92.8441 79.5545 92.8368 79.5707L92.803 79.6157L91.5597 81.416L95.2165 83.9476L94.0126 85.6972L84.2293 78.935ZM91.5428 78.4905C91.8967 78.0375 92.0601 77.4644 91.9985 76.8928C91.9485 76.6236 91.8419 76.368 91.6857 76.143C91.5296 75.918 91.3275 75.7287 91.0928 75.5876C90.8767 75.4207 90.627 75.3026 90.3609 75.2414C90.0948 75.1803 89.8186 75.1774 89.5513 75.2332C88.9888 75.3801 88.5049 75.7389 88.2011 76.2346L86.8622 78.1755L90.1926 80.4765L91.5428 78.4905Z" fill="white"/>
<circle cx="99.3066" cy="64.6091" r="1.19646" fill="white"/>
<circle cx="5.98244" cy="63.4125" r="1.19646" fill="white"/>
</g>
<defs>
<clipPath id="clip0_626_101">
<rect width="106.485" height="105" fill="white"/>
</clipPath>
</defs>
</svg>
