<svg width="59" height="216" viewBox="0 0 59 216" fill="none" xmlns="http://www.w3.org/2000/svg">
<path d="M46.34 0H24.11L12.71 65.952L26.39 61.056L11 175.104L20.405 171.072L15.56 216L32.09 156.096L22.97 159.552L46.91 41.184L35.225 45.216L46.34 0Z" fill="white"/>
<circle cx="29.0266" cy="108.027" r="29.0266" fill="white"/>
<path d="M17.9732 117.605C17.6574 117.605 17.4066 117.522 17.2209 117.355C17.0351 117.187 16.9051 116.992 16.8308 116.769L11.1462 98.9355C11.109 98.8427 11.0905 98.7591 11.0905 98.6848C11.0905 98.5361 11.1462 98.4061 11.2576 98.2946C11.3877 98.1646 11.5363 98.0996 11.7035 98.0996H15.1588C15.4561 98.0996 15.6883 98.1832 15.8555 98.3504C16.0227 98.5176 16.1248 98.6755 16.162 98.8241L20.091 111.698L24.0479 98.8241C24.1037 98.6755 24.2058 98.5176 24.3545 98.3504C24.5216 98.1832 24.7539 98.0996 25.0511 98.0996H28.5064C28.6736 98.0996 28.8129 98.1646 28.9244 98.2946C29.0544 98.4061 29.1195 98.5361 29.1195 98.6848C29.1195 98.7591 29.1009 98.8427 29.0637 98.9355L23.3792 116.769C23.3049 116.992 23.1748 117.187 22.989 117.355C22.8218 117.522 22.5711 117.605 22.2367 117.605H17.9732Z" fill="#36A629"/>
<path d="M38.3408 117.884C36.4831 117.884 34.9412 117.624 33.7151 117.104C32.489 116.565 31.5602 115.869 30.9285 115.014C30.2969 114.159 29.9625 113.249 29.9254 112.283C29.9254 112.135 29.9811 112.004 30.0926 111.893C30.2226 111.763 30.3712 111.698 30.5384 111.698H34.0495C34.3096 111.698 34.5046 111.744 34.6347 111.837C34.7833 111.93 34.9133 112.051 35.0248 112.2C35.1734 112.478 35.3777 112.748 35.6378 113.008C35.9165 113.268 36.2694 113.481 36.6967 113.649C37.1426 113.797 37.6906 113.871 38.3408 113.871C39.4183 113.871 40.2264 113.704 40.7651 113.37C41.3224 113.036 41.6011 112.58 41.6011 112.004C41.6011 111.596 41.4524 111.261 41.1552 111.001C40.858 110.723 40.375 110.481 39.7062 110.277C39.056 110.054 38.1829 109.831 37.0868 109.608C35.675 109.311 34.4675 108.93 33.4643 108.466C32.4797 107.983 31.7274 107.36 31.2072 106.599C30.687 105.818 30.427 104.852 30.427 103.701C30.427 102.567 30.7428 101.555 31.3744 100.663C32.0246 99.7715 32.9256 99.0749 34.0774 98.5733C35.2291 98.0717 36.5945 97.8209 38.1736 97.8209C39.4554 97.8209 40.5793 97.9881 41.5453 98.3225C42.5299 98.6569 43.3566 99.1027 44.0254 99.66C44.6941 100.217 45.1957 100.812 45.5301 101.443C45.8831 102.056 46.0688 102.66 46.0874 103.255C46.0874 103.403 46.0317 103.543 45.9202 103.673C45.8088 103.784 45.6694 103.84 45.5022 103.84H41.824C41.6196 103.84 41.4431 103.803 41.2945 103.728C41.1459 103.654 41.0159 103.533 40.9044 103.366C40.793 102.957 40.4957 102.605 40.0127 102.307C39.5483 101.991 38.9352 101.834 38.1736 101.834C37.3562 101.834 36.7153 101.982 36.2509 102.279C35.805 102.558 35.5821 102.995 35.5821 103.589C35.5821 103.961 35.7028 104.286 35.9443 104.564C36.2044 104.843 36.6224 105.085 37.1983 105.289C37.7928 105.493 38.6009 105.707 39.6226 105.93C41.3131 106.246 42.6785 106.645 43.7188 107.128C44.7592 107.592 45.5208 108.205 46.0038 108.967C46.4868 109.71 46.7283 110.648 46.7283 111.782C46.7283 113.045 46.3661 114.141 45.6416 115.07C44.9356 115.98 43.951 116.677 42.6878 117.16C41.4246 117.643 39.9756 117.884 38.3408 117.884Z" fill="#36A629"/>
</svg>
