<svg width="6" height="66" viewBox="0 0 6 66" fill="none" xmlns="http://www.w3.org/2000/svg">
<g clip-path="url(#clip0_619_171)">
<path d="M5.5 0.5H0.5V6.5H5.5V0.5Z" fill="white" stroke="white"/>
<path d="M5.5 7.5H0.5V13.5H5.5V7.5Z" stroke="white"/>
<path d="M5.5 14.5H0.5V19.5H5.5V14.5Z" fill="white" stroke="white"/>
<path d="M5.5 20.5H0.5V26.5H5.5V20.5Z" stroke="white"/>
<path d="M5.5 27.5H0.5V32.5H5.5V27.5Z" fill="white" stroke="white"/>
<path d="M5.5 33.5H0.5V39.5H5.5V33.5Z" stroke="white"/>
<path d="M5.5 40.5H0.5V45.5H5.5V40.5Z" fill="white" stroke="white"/>
<path d="M5.5 46.5H0.5V52.5H5.5V46.5Z" stroke="white"/>
<path d="M5.5 53.5H0.5V58.5H5.5V53.5Z" fill="white" stroke="white"/>
<path d="M5.5 59.5H0.5V65.5H5.5V59.5Z" stroke="white"/>
</g>
<defs>
<clipPath id="clip0_619_171">
<rect width="6" height="66" fill="white"/>
</clipPath>
</defs>
</svg>
