<svg width="424" height="126" viewBox="0 0 424 126" fill="none" xmlns="http://www.w3.org/2000/svg">
<path d="M0.574036 123.656V6.99941H24.4058L66.8058 86.326H54.232L95.4623 6.99941H119.294L119.586 123.656H92.9768L92.6844 53.1622H97.2168L66.3672 112.157H53.5009L21.774 53.1622H27.3299V123.656H0.574036Z" fill="white"/>
<path d="M178.523 125.156C169.848 125.156 162.148 123.156 155.422 119.157C148.697 115.157 143.384 109.657 139.485 102.658C135.684 95.5475 133.783 87.437 133.783 78.3267C133.783 69.2164 135.684 61.1615 139.485 54.1621C143.384 47.1627 148.697 41.7187 155.422 37.8301C162.148 33.8305 169.848 31.8306 178.523 31.8306C187.198 31.8306 194.898 33.8305 201.623 37.8301C208.446 41.7187 213.759 47.1627 217.56 54.1621C221.361 61.1615 223.262 69.2164 223.262 78.3267C223.262 87.437 221.361 95.5475 217.56 102.658C213.759 109.657 208.446 115.157 201.623 119.157C194.898 123.156 187.198 125.156 178.523 125.156ZM178.523 99.9915C181.739 99.9915 184.566 99.1583 187.003 97.4918C189.537 95.8252 191.535 93.381 192.997 90.159C194.459 86.826 195.19 82.8819 195.19 78.3267C195.19 73.7715 194.459 69.9385 192.997 66.8277C191.535 63.6057 189.537 61.1615 187.003 59.495C184.566 57.8284 181.739 56.9952 178.523 56.9952C175.404 56.9952 172.577 57.8284 170.043 59.495C167.606 61.1615 165.608 63.6057 164.048 66.8277C162.586 69.9385 161.855 73.7715 161.855 78.3267C161.855 82.8819 162.586 86.826 164.048 90.159C165.608 93.381 167.606 95.8252 170.043 97.4918C172.577 99.1583 175.404 99.9915 178.523 99.9915Z" fill="white"/>
<path d="M287.742 31.8306C293.882 31.8306 299.438 33.275 304.409 36.1636C309.38 38.9412 313.279 43.2741 316.106 49.1625C319.03 55.0509 320.492 62.6614 320.492 71.9939V123.656H292.713V77.1601C292.713 70.7162 291.543 66.05 289.204 63.1613C286.962 60.1616 283.794 58.6617 279.7 58.6617C276.776 58.6617 274.096 59.4394 271.659 60.9948C269.222 62.4392 267.321 64.7168 265.957 67.8276C264.592 70.9384 263.91 74.9937 263.91 79.9932V123.656H236.131V0H263.91V58.995L257.477 51.4956C260.498 44.9406 264.641 40.0522 269.904 36.8302C275.168 33.4972 281.114 31.8306 287.742 31.8306Z" fill="white"/>
<path d="M373.437 125.156C366.224 125.156 359.645 123.267 353.699 119.49C347.851 115.601 343.172 110.213 339.663 103.325C336.154 96.3252 334.4 87.9926 334.4 78.3267C334.4 68.772 336.154 60.5504 339.663 53.6621C343.172 46.6627 347.851 41.2743 353.699 37.4968C359.645 33.7194 366.224 31.8306 373.437 31.8306C380.26 31.8306 386.011 33.4972 390.69 36.8302C395.466 40.1633 399.072 45.274 401.509 52.1623C403.946 59.0506 405.164 67.772 405.164 78.3267C405.164 89.1036 403.994 97.9362 401.655 104.824C399.316 111.713 395.807 116.823 391.128 120.157C386.45 123.49 380.553 125.156 373.437 125.156ZM379.285 99.9915C382.404 99.9915 385.182 99.1583 387.619 97.4918C390.153 95.8252 392.152 93.381 393.614 90.159C395.076 86.826 395.807 82.8819 395.807 78.3267C395.807 73.7715 395.076 69.9385 393.614 66.8277C392.152 63.6057 390.153 61.1615 387.619 59.495C385.182 57.8284 382.404 56.9952 379.285 56.9952C376.069 56.9952 373.193 57.8284 370.659 59.495C368.222 61.1615 366.273 63.6057 364.811 66.8277C363.349 69.9385 362.618 73.7715 362.618 78.3267C362.618 82.8819 363.349 86.826 364.811 90.159C366.273 93.381 368.222 95.8252 370.659 97.4918C373.193 99.1583 376.069 99.9915 379.285 99.9915ZM396.684 123.656V108.158L396.83 78.3267L395.368 48.4959V0H423.148V123.656H396.684Z" fill="white"/>
</svg>
