<svg width="523" height="141" viewBox="0 0 523 141" fill="none" xmlns="http://www.w3.org/2000/svg">
<path d="M48.1007 141C38.7523 141 29.7301 139.699 21.0339 137.097C12.4464 134.371 5.43511 130.902 0 126.689L10.5985 99.5544C15.7075 103.271 21.5774 106.369 28.2082 108.847C34.9478 111.201 41.633 112.378 48.2638 112.378C52.7206 112.378 56.3078 111.945 59.0253 111.077C61.7429 110.086 63.6995 108.847 64.8952 107.36C66.1997 105.75 66.8519 103.891 66.8519 101.785C66.8519 98.811 65.6562 96.4568 63.2647 94.7221C60.8733 92.9875 57.7752 91.5626 53.9707 90.4475C50.1661 89.3324 45.9267 88.2172 41.2525 87.1021C36.687 85.987 32.0672 84.5621 27.393 82.8274C22.8275 81.0928 18.6424 78.8626 14.8379 76.1367C11.0333 73.2869 7.93526 69.6317 5.54381 65.1712C3.15236 60.5868 1.95664 54.8253 1.95664 47.8867C1.95664 40.0808 3.80458 33.0184 7.50045 26.6993C11.305 20.3802 16.9576 15.3002 24.458 11.4592C31.9585 7.61819 41.3069 5.6977 52.5032 5.6977C60.0036 5.6977 67.341 6.68892 74.5154 8.67137C81.7984 10.5299 88.2662 13.3177 93.9187 17.0348L83.9725 44.3555C78.5374 41.0101 73.1566 38.532 67.8302 36.9213C62.5038 35.1867 57.3404 34.3193 52.3401 34.3193C47.8833 34.3193 44.2962 34.8769 41.5786 35.992C38.8611 36.9833 36.9044 38.3462 35.7087 40.0808C34.513 41.8155 33.9151 43.7979 33.9151 46.0282C33.9151 48.878 35.0565 51.1702 37.3392 52.9048C39.7307 54.5156 42.8287 55.8785 46.6333 56.9936C50.5465 57.9849 54.7859 59.038 59.3514 60.1531C64.0256 61.2683 68.6455 62.6932 73.211 64.4278C77.8852 66.0386 82.1245 68.2688 85.9291 71.1186C89.7337 73.8444 92.7774 77.4996 95.0601 82.084C97.4516 86.5445 98.6473 92.1821 98.6473 98.9968C98.6473 106.555 96.745 113.555 92.9404 119.998C89.2445 126.317 83.6464 131.398 76.1459 135.239C68.7542 139.08 59.4058 141 48.1007 141Z" fill="white"/>
<path d="M149.269 140.071C142.095 140.071 135.627 138.46 129.866 135.239C124.213 132.017 119.756 126.999 116.495 120.184C113.343 113.246 111.767 104.511 111.767 93.9787V37.6647H142.747V88.2172C142.747 96.0231 143.997 101.599 146.497 104.944C149.106 108.29 152.747 109.962 157.422 109.962C160.465 109.962 163.237 109.157 165.737 107.546C168.238 105.935 170.249 103.395 171.77 99.9261C173.292 96.3329 174.053 91.7485 174.053 86.1728V37.6647H205.033V138.398H175.521V109.962L181.227 117.954C178.184 125.388 173.781 130.964 168.02 134.681C162.259 138.274 156.009 140.071 149.269 140.071Z" fill="white"/>
<path d="M282.546 35.992C289.394 35.992 295.59 37.6028 301.134 40.8243C306.678 43.9218 311.026 48.7541 314.178 55.3209C317.439 61.8878 319.07 70.3752 319.07 80.783V138.398H288.09V86.5445C288.09 79.3581 286.785 74.1542 284.177 70.9327C281.676 67.5873 278.144 65.9147 273.578 65.9147C270.317 65.9147 267.328 66.782 264.61 68.5166C261.893 70.1274 259.773 72.6674 258.251 76.1367C256.729 79.606 255.968 84.1284 255.968 89.7041V138.398H224.988V0.493759H255.968V66.2864L248.794 57.9229C252.164 50.6126 256.784 45.1609 262.654 41.5677C268.523 37.8506 275.154 35.992 282.546 35.992Z" fill="white"/>
<path d="M392.491 138.398V119.627L390.371 114.98V80.4113C390.371 74.8357 388.85 70.561 385.806 67.5874C382.871 64.4898 378.142 62.941 371.62 62.941C367.381 62.941 363.087 63.7463 358.739 65.3571C354.391 66.8439 350.695 68.9503 347.651 71.6762L337.216 47.7009C342.216 43.9838 348.195 41.134 355.152 39.1516C362.217 37.0452 369.229 35.992 376.186 35.992C390.534 35.992 401.622 39.7711 409.449 47.3292C417.384 54.7634 421.352 66.4722 421.352 82.4557V138.398H392.491ZM366.403 140.071C359.337 140.071 353.358 138.708 348.467 135.982C343.575 133.256 339.825 129.539 337.216 124.831C334.716 120.122 333.466 114.856 333.466 109.033C333.466 102.838 334.825 97.51 337.542 93.0495C340.368 88.465 344.662 84.9958 350.423 82.6416C356.185 80.1635 363.631 78.9245 372.762 78.9245H393.632V97.3241H377.001C372.001 97.3241 368.468 98.2534 366.403 100.112C364.446 101.971 363.468 104.449 363.468 107.546C363.468 110.644 364.5 113.122 366.566 114.98C368.631 116.839 371.457 117.768 375.044 117.768C378.414 117.768 381.458 116.839 384.175 114.98C387.002 112.998 389.067 110.024 390.371 106.059L394.611 119.069C392.98 126.008 389.774 131.274 384.991 134.867C380.316 138.336 374.12 140.071 366.403 140.071Z" fill="white"/>
<path d="M440.906 138.398V37.6647H471.887V138.398H440.906Z" fill="white"/>
<path d="M492.02 138.398V0.493759H523V138.398H492.02Z" fill="white"/>
</svg>
