<svg width="71" height="40" viewBox="0 0 71 40" fill="none" xmlns="http://www.w3.org/2000/svg">
<rect x="31.9402" width="26.5836" height="6.61149" fill="white"/>
<path d="M13.6889 40C11.0284 40 8.4608 39.6297 5.98597 38.8893C3.54209 38.1135 1.54676 37.1262 0 35.9273L3.01619 28.2051C4.47015 29.2629 6.14065 30.1445 8.0277 30.8497C9.94569 31.5197 11.8482 31.8546 13.7353 31.8546C15.0036 31.8546 16.0245 31.7312 16.7979 31.4844C17.5712 31.2023 18.1281 30.8497 18.4684 30.4266C18.8396 29.9682 19.0252 29.4393 19.0252 28.8398C19.0252 27.9935 18.6849 27.3236 18.0043 26.8299C17.3238 26.3363 16.4421 25.9308 15.3594 25.6134C14.2766 25.296 13.0702 24.9787 11.7399 24.6613C10.4407 24.344 9.12591 23.9385 7.79569 23.4448C6.49641 22.9512 5.3054 22.3165 4.22266 21.5407C3.13993 20.7297 2.25827 19.6895 1.5777 18.4201C0.897123 17.1154 0.556835 15.4758 0.556835 13.5011C0.556835 11.2797 1.08273 9.2698 2.13453 7.47147C3.21727 5.67315 4.8259 4.22744 6.96044 3.13434C9.09497 2.04124 11.7554 1.49469 14.9417 1.49469C17.0763 1.49469 19.1644 1.77678 21.2061 2.34096C23.2788 2.86988 25.1194 3.66326 26.7281 4.72109L23.8975 12.4962C22.3507 11.5442 20.8194 10.8389 19.3036 10.3805C17.7878 9.88687 16.3184 9.64004 14.8953 9.64004C13.627 9.64004 12.6061 9.79872 11.8327 10.1161C11.0594 10.3982 10.5025 10.786 10.1622 11.2797C9.82195 11.7733 9.65181 12.3375 9.65181 12.9722C9.65181 13.7832 9.97662 14.4356 10.6263 14.9292C11.3068 15.3876 12.1885 15.7755 13.2712 16.0929C14.3849 16.3749 15.5914 16.6747 16.8907 16.992C18.2209 17.3094 19.5356 17.7149 20.8349 18.2085C22.1651 18.6669 23.3716 19.3016 24.4543 20.1126C25.5371 20.8884 26.4033 21.9286 27.0529 23.2333C27.7335 24.5027 28.0738 26.1071 28.0738 28.0464C28.0738 30.1974 27.5324 32.1896 26.4497 34.0232C25.3979 35.8215 23.8047 37.2673 21.6702 38.3603C19.5666 39.4534 16.9061 40 13.6889 40Z" fill="white"/>
<path d="M42.48 39.7355C40.4383 39.7355 38.5977 39.2771 36.9581 38.3603C35.3495 37.4436 34.0811 36.0155 33.1531 34.0761C32.2559 32.1015 31.8074 29.6156 31.8074 26.6183V10.5921H40.6239V24.9787C40.6239 27.2002 40.9797 28.7869 41.6912 29.739C42.4336 30.691 43.47 31.167 44.8002 31.167C45.6664 31.167 46.4552 30.9379 47.1667 30.4795C47.8783 30.0211 48.4506 29.2982 48.8836 28.3109C49.3167 27.2883 49.5333 25.9836 49.5333 24.3969V10.5921H58.3498V39.2595H49.9509V31.167L51.575 33.4414C50.7088 35.5571 49.4559 37.1438 47.8164 38.2017C46.1768 39.2242 44.398 39.7355 42.48 39.7355Z" fill="white"/>
<circle cx="66.1665" cy="35.8735" r="4.12651" fill="white"/>
</svg>
